<svg role="img" width="1024" height="1024" viewBox="0 0 1254 1254" version="1.1" xmlns="http://www.w3.org/2000/svg" desc="Created with imagetracer.js version 1.2.6" ><path fill="#000" stroke="rgb(0,0,0)" stroke-width="0" opacity="1" d="M 795.5 173 L 800 173.5 Q 782.2 184.7 769 200.5 L 756 221.5 L 750 241.5 L 749 259.5 L 750.5 259 L 761.5 254 L 795.5 244 L 808.5 243 L 809.5 242 L 839.5 242 L 859.5 246 Q 875.9 250.6 889.5 258 Q 913.8 271.7 932 291.5 Q 961.9 323.1 979.5 367 L 992 350.5 L 1001 329.5 L 1005 309.5 L 1005 289.5 L 1001 267.5 L 993 247.5 L 994.5 247 Q 1026 275 1045 315.5 L 1052 333.5 L 1056 348.5 L 1058 366.5 L 1059 367.5 Q 1057.2 380.8 1060 389.5 L 1059 390.5 L 1058 416.5 L 1052 447.5 L 1043 476.5 L 1037 489.5 L 1029 513.5 L 1026 528.5 L 1027 528.5 Q 1038.3 500.8 1058.5 482 Q 1073.3 467.8 1094.5 460 L 1093 462.5 L 1080 486.5 L 1077 498.5 L 1077 505.5 L 1080 517.5 Q 1091.2 534.8 1097 557.5 L 1098 568.5 L 1099 569.5 L 1099 594.5 L 1095 615.5 L 1084 642.5 Q 1072.6 663.1 1055.5 678 Q 1039.7 692.2 1018.5 701 L 1002.5 706 L 978.5 708 L 977.5 707 L 964.5 706 Q 959.5 699.5 951 696.5 L 954 670.5 L 957 661.5 L 979 618.5 L 994 576.5 L 1000 549.5 L 1001 533.5 L 1002 532.5 L 1002 496.5 L 1001 495.5 L 1001 485.5 L 998 468.5 L 989.5 439 L 989 443.5 L 990 444.5 L 990 462.5 L 991 463.5 L 991 486.5 L 990 487.5 L 989 524.5 L 988 525.5 L 986 548.5 L 977 590.5 L 965 623.5 L 955 642.5 L 950.5 648 L 948 610.5 L 943 586.5 L 934 560.5 L 918.5 531 L 918 532.5 L 924 549.5 L 932 590.5 L 935 631.5 L 936 632.5 L 936 638.5 L 940 658.5 L 940 667.5 L 941 668.5 L 941 687.5 L 940 688.5 L 940 695.5 L 938 705.5 L 934.5 714 L 933 713.5 L 926 669.5 L 920 650.5 Q 910.8 627.8 894.5 612 L 894 613.5 L 909 643.5 L 914 660.5 L 916 678.5 L 901.5 665 L 890.5 658 L 897 665.5 Q 914.1 685.4 923 713.5 L 926 730.5 L 926 753.5 L 924 764.5 L 918 781.5 Q 911.4 793.9 901.5 803 L 900 803.5 L 888 827.5 L 877.5 840 Q 861.2 856.2 830.5 858 L 830 851.5 L 831 850.5 L 831 838.5 L 828 822.5 L 816 787.5 Q 810.4 775.6 800.5 768 Q 789 759.5 772.5 756 Q 767.8 757.2 766.5 755 L 739.5 755 L 719 759.5 L 719.5 767 L 729.5 765 L 761.5 765 L 773 768.5 L 753 784.5 L 754.5 785 L 783.5 777 L 788.5 777 L 796 783.5 Q 801.3 789.2 803 798.5 L 803 812.5 Q 796.1 839.1 777.5 854 L 774.5 854 L 749.5 844 L 750 845.5 L 761 867.5 Q 740.6 883.1 712.5 891 L 688.5 896 L 660.5 897 L 659.5 896 L 645.5 895 L 630.5 891 Q 616.5 886 607 876.5 L 604 871.5 L 635.5 856 L 649.5 847 Q 664.8 836.3 677 822.5 Q 690 808 698 788.5 L 703 768.5 L 703 749.5 L 698 730.5 L 687 707.5 L 679 693.5 L 667.5 681 L 652.5 672 L 635.5 667 Q 630 668.5 628.5 666 L 596.5 666 L 581.5 669 L 571 649.5 L 560.5 638 Q 535.1 616.4 486.5 618 L 485.5 619 L 475.5 619 L 474.5 620 L 463.5 621 L 431.5 631 Q 397.8 645.3 375 670.5 Q 360.2 685.7 352 707.5 L 348 722.5 L 347 742.5 L 349 750.5 L 346.5 751 Q 335.8 744.8 328 735.5 Q 312.2 719.8 311 689.5 L 315 674.5 L 325.5 661 Q 333 654.5 343.5 651 L 352 643.5 Q 355 639.5 354 631.5 L 348 620.5 L 349.5 621 Q 358 623.5 363 629.5 Q 367.1 634.4 367.5 643 Q 371.4 638.4 371 629.5 L 369 622.5 L 363.5 616 L 345.5 607 L 333 596.5 Q 328.5 592 329 582.5 Q 330.5 574 336.5 570 L 345.5 565 L 353.5 563 L 377.5 562 L 378.5 563 L 387.5 563 L 401.5 566 L 420.5 573 L 446.5 585 L 461.5 588 L 469.5 588 L 484.5 584 L 499 572.5 L 505.5 565 L 519.5 557 L 534.5 556 Q 550.7 559.8 559 571.5 Q 567.1 592.4 582.5 606 L 600.5 617 L 623.5 624 L 643.5 625 L 644.5 626 L 676.5 626 L 686.5 628 Q 701.3 632.3 709 643.5 L 715 658.5 Q 714.6 674.4 719 685.5 Q 724.4 699.1 734.5 708 L 751.5 719 L 761.5 723 L 791.5 731 L 810.5 740 Q 823.6 747.9 833 759.5 Q 841.6 769 842 786.5 L 834 802.5 L 837.5 813 L 842 809.5 L 849 793.5 L 849 775.5 L 842 755.5 Q 833.6 740.9 820.5 731 Q 803.9 720.1 791 705.5 Q 782.8 695.7 778 682.5 L 776 674.5 L 775 656.5 L 776 651.5 L 775 651.5 L 769 676.5 L 769 688.5 L 775 705.5 L 781.5 713 L 783 713.5 L 782.5 715 Q 766.7 712.3 754.5 706 Q 744.1 700.4 737 691.5 L 730 677.5 L 728 654.5 L 725 643.5 L 714.5 628 Q 705.6 619.4 692.5 615 L 678.5 612 L 659.5 611 L 658.5 612 L 641.5 612 L 640.5 611 L 628.5 611 L 620 608.5 L 632.5 603 L 648.5 592 L 669.5 583 L 682.5 580 L 706.5 580 Q 734.3 584.7 748.5 603 L 749 601.5 L 737.5 586 Q 728.3 577.2 714.5 573 L 698.5 570 L 688.5 570 L 665.5 575 L 653.5 580 L 628.5 594 L 617.5 598 Q 610.8 600.3 600.5 599 Q 589.4 595.6 583 587.5 Q 576.1 579.9 574 567.5 L 562.5 555 Q 550.1 543.4 526.5 543 L 514.5 546 L 502.5 553 L 502 551.5 Q 507.6 540.1 516.5 532 Q 524.5 524.5 536.5 521 L 547.5 519 L 559.5 519 L 581.5 524 L 605.5 537 L 595.5 526 Q 585.3 517.2 571.5 512 L 557.5 508 L 543.5 507 L 542.5 508 L 531.5 509 L 515.5 516 L 500 529.5 L 492 540.5 L 481 564.5 L 477.5 569 L 470.5 573 L 459.5 574 L 441.5 569 Q 424.5 558.5 402 553.5 L 423.5 544 L 437.5 535 Q 457.7 520.2 473.5 501 L 479.5 497 Q 490.2 490.7 505 488.5 L 487.5 488 L 472.5 491 L 459.5 496 Q 436.4 509.9 416.5 527 L 390.5 542 L 376.5 547 L 349.5 551 L 335.5 555 Q 326.5 559 321 566.5 L 316 577.5 L 316 592.5 Q 321.8 612.2 337 622.5 Q 339.5 626 338 633.5 L 335.5 637 Q 333.8 639.8 328.5 639 Q 318.7 634.3 312 626.5 Q 304 617.5 299 605.5 L 295 589.5 L 295 576.5 L 299 560.5 Q 303.5 549.5 311.5 542 L 322.5 534 L 361.5 516 L 398.5 492 L 422.5 479 L 459.5 467 L 471.5 466 L 472.5 465 L 482.5 465 L 483.5 464 L 506.5 464 L 507.5 465 L 517.5 465 L 544.5 470 L 564.5 476 L 581.5 483 L 602.5 494 L 648.5 522 L 675.5 535 L 698.5 543 L 738.5 553 L 755.5 559 Q 781.4 570.1 798 590.5 Q 808.4 602.6 815 618.5 L 820 632.5 L 825 655.5 L 833 673.5 L 849.5 693 L 869 711.5 Q 876.8 721.3 881 734.5 L 883 743.5 L 883 761.5 L 881 771.5 L 875 786.5 L 861.5 803 L 851.5 810 L 838 815.5 L 839.5 821 Q 870.6 819.1 884 799.5 Q 892.2 788.7 896 773.5 L 898 764.5 L 898 756.5 L 899 755.5 L 899 745.5 L 896 728.5 L 887 708.5 L 868.5 688 L 851 672.5 L 841 656.5 L 829 615.5 L 820 596.5 Q 809 577.5 792.5 564 Q 777.4 551.6 757.5 544 L 732.5 536 L 703.5 529 L 673.5 518 Q 638.4 501.6 607.5 481 L 573.5 465 L 558.5 460 L 531.5 454 L 513.5 453 L 512.5 452 L 489.5 452 L 488.5 453 L 478.5 453 L 477.5 454 L 465.5 455 L 443.5 461 Q 423.1 468.1 407.5 480 L 408 478.5 Q 413.5 460.5 427.5 451 L 445.5 441 L 467.5 433 Q 482.9 422.9 495 409.5 L 515 381.5 L 535 340.5 Q 543.8 327.3 555.5 317 Q 578.5 297.5 610.5 287 L 609 289.5 Q 596 305.5 588 326.5 L 582 348.5 L 581 368.5 L 582 368.5 Q 590.9 352.4 604.5 341 Q 621.8 325.3 642.5 313 L 658 297.5 L 669 280.5 L 686 239.5 Q 696.1 221.1 711.5 208 Q 726.1 195.6 744.5 187 L 773.5 177 L 795.5 173 Z M 695 326 Q 674 329 658 336 Q 632 345 612 359 L 578 385 L 533 427 L 527 428 Q 533 430 544 429 L 545 430 L 558 430 L 559 431 L 585 431 L 607 427 L 632 426 L 608 421 L 576 421 L 575 422 L 563 422 L 561 423 L 560 422 L 570 416 L 636 363 Q 665 342 700 327 L 695 326 Z M 699 452 L 698 453 L 688 454 L 726 461 Q 752 469 775 480 Q 813 499 843 528 Q 860 543 872 564 L 874 565 Q 861 531 838 508 Q 810 477 768 461 L 746 455 L 734 454 L 733 453 L 699 452 Z " /><path fill="#000" stroke="rgb(0,0,0)" stroke-width="0" opacity="1" d="M 285.5 583 L 287 583.5 L 288 595.5 L 294 612.5 Q 240.5 617.5 214 649.5 Q 205.2 659.7 200 673.5 L 196 688.5 L 196 699.5 L 194.5 706 L 181.5 700 L 168.5 699 L 167 697.5 L 167 687.5 L 168 686.5 L 169 674.5 L 177 651.5 Q 187.3 631.3 203.5 617 Q 221 601.5 244.5 592 L 264.5 586 L 275.5 584 L 284.5 584 L 285.5 583 Z " /><path fill="#000" stroke="rgb(0,0,0)" stroke-width="0" opacity="1" d="M 301.5 626 L 306 629.5 L 311.5 636 L 323 643.5 L 322.5 645 Q 311.6 650.1 305 659.5 Q 298.7 668.2 296 680.5 L 296 699.5 Q 301.5 729.5 321 745.5 L 319.5 746 Q 298.3 738.2 285 722.5 Q 275.6 711.9 271 696.5 L 269 686.5 L 269 669.5 Q 273.4 647.4 287.5 635 L 301.5 626 Z " /><path fill="#000" stroke="rgb(0,0,0)" stroke-width="0" opacity="1" d="M 480.5 630 Q 537.6 625.9 560 656.5 L 567 671.5 Q 508.3 687.8 473 727.5 Q 461.9 739.9 455 756.5 L 450 774.5 L 450 792.5 L 450.5 794 L 446.5 795 L 424.5 795 L 409.5 792 L 400 787.5 L 414 767.5 L 412.5 768 L 384.5 779 L 372 767.5 Q 365.2 759.8 362 748.5 L 361 744.5 L 361 724.5 L 363.5 717 L 368.5 716 L 391.5 716 L 399 714.5 L 371 699.5 Q 380.1 678.6 397.5 666 Q 411.8 653.3 430.5 645 L 453.5 664 L 454 660.5 L 449 637.5 L 467.5 632 L 479.5 631 L 480.5 630 Z " /><path fill="#000" stroke="rgb(0,0,0)" stroke-width="0" opacity="1" d="M 602.5 677 L 626.5 678 L 638 681.5 L 631.5 689 L 623 696.5 L 624.5 697 L 653.5 689 L 662 696.5 Q 671.4 706.6 670 727.5 L 666 742.5 Q 660.1 757.1 650.5 768 L 623.5 759 L 623 760.5 L 637 782.5 Q 625.3 793.8 610.5 802 L 576.5 818 L 559.5 823 L 542.5 826 L 515.5 826 L 500.5 823 L 484 815.5 L 505 789.5 L 503.5 789 L 470.5 803 Q 465.5 797 464 787.5 L 464 774.5 Q 472.1 741.1 495.5 723 L 515.5 725 L 527.5 728 L 528 726.5 Q 518.5 720 513 709.5 Q 530.5 696 553.5 688 L 576.5 681 L 593.5 678 L 601.5 678 L 602.5 677 Z " /><path fill="#000" stroke="rgb(0,0,0)" stroke-width="0" opacity="1" d="M 948.5 707 Q 957.4 708.6 961 715.5 Q 966.2 723.8 964 739.5 Q 961.3 751.8 952.5 758 L 943.5 761 L 938.5 759 L 937 760.5 L 936 767.5 L 938.5 769 L 946.5 770 Q 947.8 767.7 952.5 769 L 968 782.5 Q 975.5 790.5 979 802.5 L 981 812.5 L 981 825.5 L 978 840.5 L 973 851.5 Q 965.6 865.1 954.5 875 L 942.5 885 L 916.5 901 L 904 912.5 L 895 930.5 Q 892.6 937.6 894 948.5 L 899 962.5 L 897.5 963 Q 886.2 957.8 879 948.5 L 872 936.5 L 869 919.5 L 870 918.5 L 871 907.5 L 875 898.5 L 887.5 884 L 920.5 863 L 934 850.5 L 944 833.5 L 947 821.5 L 947 814.5 L 944 802.5 L 934.5 789 L 926 782.5 Q 932.3 773.3 935 760.5 L 937 750.5 L 938 732.5 L 942 725.5 L 947 708.5 L 948.5 707 Z " /><path fill="#000" stroke="rgb(0,0,0)" stroke-width="0" opacity="1" d="M 151.5 708 Q 182.5 705 195 720.5 Q 202.2 728.3 200 745.5 Q 198.5 754.5 194 760.5 L 195.5 761 Q 205.1 754.1 210 742.5 L 212 734.5 L 212.5 723 Q 226.5 734.5 225 761.5 Q 221 784 205.5 795 L 202 797.5 Q 200.8 802.8 203.5 804 Q 208.2 807.8 216.5 808 L 226.5 806 L 240.5 797 L 240 798.5 L 236 809.5 L 223.5 825 Q 213.8 833.8 199.5 838 Q 192 840.5 180.5 839 Q 171.1 836.9 166 830.5 L 162.5 822 L 157.5 822 L 150 827.5 Q 140.6 836.6 142 856.5 Q 144.7 868.8 151 877.5 L 149.5 877 Q 126.8 869.7 113 853.5 L 103 838.5 L 100 828.5 L 99 817.5 L 101 806.5 L 104 798.5 L 118.5 782 L 138.5 772 L 148 763.5 L 149 761.5 L 147.5 761 Q 129.9 764.4 117.5 773 L 117 770.5 Q 123 759.6 132.5 752 L 142.5 745 L 158.5 738 L 161 735.5 L 161 732.5 L 154.5 726 L 143.5 722 L 125 721.5 Q 134.6 711.1 151.5 708 Z " /><path fill="#000" stroke="rgb(0,0,0)" stroke-width="0" opacity="1" d="M 684.5 714 L 694 739.5 L 696 750.5 L 696 760.5 Q 689.1 796.1 666.5 816 L 662 804.5 L 657 782.5 Q 669.1 769.6 677 752.5 L 682 738.5 L 684 728.5 L 684.5 714 Z " /><path fill="#000" stroke="rgb(0,0,0)" stroke-width="0" opacity="1" d="M 972.5 728 L 998.5 734 L 1029.5 747 Q 1048.8 757.8 1063 773.5 Q 1073.4 785.6 1080 801.5 L 1085 820.5 L 1086 840.5 L 1085 841.5 L 1085 849.5 L 1083 860.5 L 1075.5 881 L 1061.5 872 L 1049.5 869 L 1048 867.5 Q 1055.1 854.1 1054 832.5 L 1052 822.5 L 1046 807.5 Q 1037.9 793.5 1025.5 784 L 1004.5 771 L 989.5 765 L 965.5 759 L 964 757.5 Q 972.9 747.4 972.5 728 Z " /><path fill="#000" stroke="rgb(0,0,0)" stroke-width="0" opacity="1" d="M 355.5 769 L 357 769.5 Q 361.6 778.9 369.5 785 Q 385.1 798.9 407.5 806 L 418.5 807 L 419.5 808 L 444.5 808 L 445.5 807 L 453.5 807 L 465 835.5 L 459.5 838 L 446.5 839 Q 435.4 830.1 420.5 825 L 386.5 816 Q 374.9 810.6 368 800.5 L 360 785.5 L 355.5 769 Z " /><path fill="#000" stroke="rgb(0,0,0)" stroke-width="0" opacity="1" d="M 645.5 793 L 648 793.5 L 657 825.5 Q 630.8 848.8 594.5 862 L 562.5 870 L 530.5 871 L 529.5 870 L 521.5 870 Q 518.6 867.4 512.5 868 L 498.5 863 Q 485.3 857.3 477 846.5 L 466 822.5 L 467.5 822 Q 490.3 842.7 535.5 841 L 536.5 840 L 546.5 840 L 567.5 836 L 594.5 826 Q 623.8 813.3 645.5 793 Z " /><path fill="#000" stroke="rgb(0,0,0)" stroke-width="0" opacity="1" d="M 817.5 807 L 823 829.5 L 824 847.5 L 820 864.5 L 814 876.5 Q 805.4 890.4 793.5 901 L 788.5 904 L 782 869.5 Q 796.4 857.9 806 841.5 L 814 824.5 L 817.5 807 Z " /><path fill="#000" stroke="rgb(0,0,0)" stroke-width="0" opacity="1" d="M 344.5 825 L 373.5 826 L 374.5 827 L 391.5 829 L 408.5 834 L 421 839.5 L 404 855.5 L 405.5 856 L 410.5 854 L 436.5 849 L 451 862.5 L 459 878.5 L 460 892.5 L 454 909.5 L 437.5 928 Q 418.7 942.7 392.5 950 L 375.5 954 L 360.5 955 L 359.5 956 L 326.5 956 L 295.5 950 L 272 940.5 L 290 916.5 L 288.5 916 L 286.5 918 L 256.5 930 L 247 921.5 L 238 906.5 L 236 898.5 L 236 891.5 Q 238.5 890 237 884.5 L 241 874.5 Q 247.1 863.5 256.5 856 L 259.5 855 L 260.5 856 L 268.5 856 L 269.5 857 L 277.5 857 L 278.5 858 L 298.5 860 L 297.5 858 L 278 843.5 L 278.5 842 L 306.5 831 L 325.5 827 L 343.5 826 L 344.5 825 Z " /><path fill="#000" stroke="rgb(0,0,0)" stroke-width="0" opacity="1" d="M 1024.5 873 L 1028 874.5 L 1027.5 876 L 1021.5 875 L 1013 881.5 L 1006 893.5 Q 1003.5 901 1005 912.5 L 1006.5 916 Q 1008.8 896.8 1020.5 887 L 1032.5 880 Q 1039.2 877.7 1049.5 879 Q 1068.3 883.7 1078 897.5 L 1087 914.5 L 1089 922.5 L 1089 928.5 L 1081.5 922 Q 1074.8 915.7 1063.5 914 L 1056 917.5 L 1055 919.5 L 1057.5 923 Q 1066.3 926.7 1071 934.5 L 1077 947.5 L 1079 970.5 L 1078 971.5 L 1077 984.5 L 1073 996.5 Q 1066.5 1011 1054.5 1020 Q 1044.9 1027.4 1031.5 1031 L 1026.5 1032 L 1005.5 1032 Q 990.3 1029.3 980 1021.5 L 989.5 1021 L 1000.5 1018 Q 1011.8 1012.8 1019 1003.5 L 1025 989.5 L 1025 977.5 L 1019.5 968 L 1016.5 966 L 1006.5 978 Q 993.8 987.3 970.5 986 Q 947.7 982.3 936 967.5 Q 926.3 957.7 925 939.5 L 926.5 939 Q 934.3 947.7 952.5 946 Q 967.3 942.8 975 932.5 L 980 925.5 L 995 892.5 L 1004.5 882 Q 1012.1 875.1 1024.5 873 Z " /><path fill="#000" stroke="rgb(0,0,0)" stroke-width="0" opacity="1" d="M 585.5 877 Q 589.3 876.3 590 878.5 L 599.5 890 L 618 901.5 L 616.5 902 L 608.5 899 L 594.5 897 L 590 894.5 Q 585.6 887 585.5 877 Z " /><path fill="#000" stroke="rgb(0,0,0)" stroke-width="0" opacity="1" d="M 770.5 878 L 772 878.5 L 776 895.5 L 778 912.5 Q 758.9 926.9 733.5 935 L 703.5 942 L 681.5 943 L 667.5 927 Q 654.6 915.9 638 908.5 L 640.5 908 L 655.5 911 L 678.5 911 L 679.5 910 L 695.5 909 L 723.5 902 L 757.5 887 L 770.5 878 Z " /><path fill="#000" stroke="rgb(0,0,0)" stroke-width="0" opacity="1" d="M 473.5 890 L 476 899.5 L 476 917.5 L 456 935.5 L 445 954.5 L 442 966.5 L 442 973.5 L 440.5 975 L 413.5 990 L 389.5 998 L 367.5 1002 L 358.5 1002 L 357.5 1003 L 331.5 1003 L 330.5 1002 L 314.5 1001 L 292.5 996 L 273.5 989 L 264 983.5 L 264.5 953 L 300.5 966 L 323.5 969 L 324.5 970 L 343.5 970 L 346.5 971 L 347.5 970 L 361.5 970 L 362.5 969 L 381.5 967 L 411.5 958 Q 438.5 947 457 927.5 Q 465 918.5 470 906.5 L 473.5 890 Z " /><path fill="#000" stroke="rgb(0,0,0)" stroke-width="0" opacity="1" d="M 222.5 903 L 224 903.5 L 224 906.5 L 229 919.5 Q 236.9 932.6 248.5 942 L 254 945.5 L 253.5 977 L 238 964.5 Q 230.2 956.3 226 944.5 L 223 929.5 L 222.5 903 Z " /><path fill="#000" stroke="rgb(0,0,0)" stroke-width="0" opacity="1" d="M 549.5 906 L 579.5 906 L 580.5 907 L 588.5 907 L 605.5 910 Q 628.5 915.5 646 926.5 L 645.5 929 L 622 942.5 L 632.5 943 L 633.5 942 L 646.5 942 L 647.5 941 L 662.5 941 Q 669.7 946.8 673 956.5 L 675 970.5 Q 671 993 655.5 1004 Q 643.6 1013.6 628.5 1020 L 607.5 1027 L 579.5 1032 L 545.5 1032 L 517.5 1027 L 497 1019.5 L 512 997.5 L 510.5 998 L 480.5 1010 L 468 999.5 L 458 983.5 L 456 976.5 L 456 965.5 Q 460.6 945.6 474.5 935 L 482.5 929 L 487.5 928 L 518.5 937 L 512 929.5 L 502 918.5 L 517.5 912 L 549.5 906 Z " /><path fill="#000" stroke="rgb(0,0,0)" stroke-width="0" opacity="1" d="M 687.5 973 L 689 975.5 L 689 1006.5 L 687 1016.5 L 682 1028.5 L 669.5 1044 L 647.5 1060 L 615.5 1073 L 583.5 1079 L 555.5 1080 L 554.5 1079 L 542.5 1079 L 541.5 1078 L 524.5 1076 L 500.5 1069 L 489 1063.5 L 489.5 1032 Q 506.5 1040 527.5 1044 L 540.5 1045 L 541.5 1046 L 566.5 1047 L 567.5 1046 L 582.5 1046 L 583.5 1045 L 596.5 1044 L 625.5 1036 Q 655.3 1025.8 674 1004.5 L 683 990.5 Q 686.8 983.3 687.5 973 Z " /><path fill="#000" stroke="rgb(0,0,0)" stroke-width="0" opacity="1" d="M 443.5 982 Q 450.4 1005.1 467.5 1018 L 478 1025.5 L 477.5 1057 Q 466.1 1050.9 458 1041.5 Q 448.9 1031.6 445 1016.5 L 444 1005.5 L 443 1004.5 L 443.5 982 Z " /><path fill="none" stroke="rgb(255,255,255)" stroke-width="0" opacity="1" d="M 0.5 0 L 1254 0.5 L 1253.5 1254 L 0 1253.5 L 0.5 0 Z M 796 173 L 774 177 L 745 187 Q 726 196 712 208 Q 696 221 686 240 L 669 281 L 658 298 L 643 313 Q 622 325 605 341 Q 591 352 582 369 L 581 369 L 582 349 L 588 327 Q 596 306 609 290 L 611 287 Q 578 297 556 317 Q 544 327 535 341 L 515 382 L 495 410 Q 483 423 468 433 L 446 441 L 428 451 Q 413 460 408 479 L 408 480 Q 423 468 444 461 L 466 455 L 478 454 L 479 453 L 489 453 L 490 452 L 513 452 L 514 453 L 532 454 L 559 460 L 574 465 L 608 481 Q 638 502 674 518 L 704 529 L 733 536 L 758 544 Q 777 552 793 564 Q 809 577 820 597 L 829 616 L 841 657 L 851 673 L 869 688 L 887 709 L 896 729 L 899 746 L 899 756 L 898 757 L 898 765 L 896 774 Q 892 789 884 800 Q 871 819 840 821 L 838 816 L 852 810 L 862 803 L 875 787 L 881 772 L 883 762 L 883 744 L 881 735 Q 877 721 869 712 L 850 693 L 833 674 L 825 656 L 820 633 L 815 619 Q 808 603 798 591 Q 781 570 756 559 L 739 553 L 699 543 L 676 535 L 649 522 L 603 494 L 582 483 L 565 476 L 545 470 L 518 465 L 508 465 L 507 464 L 484 464 L 483 465 L 473 465 L 472 466 L 460 467 L 423 479 L 399 492 L 362 516 L 323 534 L 312 542 Q 304 550 299 561 L 295 577 L 295 590 L 299 606 Q 304 617 312 627 Q 319 634 329 639 Q 334 640 336 637 L 338 634 Q 340 626 337 623 Q 322 612 316 593 L 316 578 L 321 567 Q 326 559 336 555 L 350 551 L 377 547 L 391 542 L 417 527 Q 436 510 460 496 L 473 491 L 488 488 L 505 489 Q 490 491 480 497 L 474 501 Q 458 520 438 535 L 424 544 L 402 554 Q 425 558 442 569 L 460 574 L 471 573 L 478 569 L 481 565 L 492 541 L 500 530 L 516 516 L 532 509 L 543 508 L 544 507 L 558 508 L 572 512 Q 585 517 596 526 L 607 538 Q 596 529 582 524 L 560 519 L 548 519 L 537 521 Q 525 525 517 532 Q 508 540 502 552 L 503 553 L 515 546 L 527 543 Q 550 543 563 555 L 574 568 Q 576 580 583 588 Q 589 596 601 599 Q 611 600 618 598 L 629 594 L 654 580 L 666 575 L 689 570 L 699 570 L 715 573 Q 728 577 738 586 Q 745 592 749 603 L 750 604 Q 735 585 707 580 L 683 580 L 670 583 L 649 592 L 633 603 L 620 609 L 629 611 L 641 611 L 642 612 L 659 612 L 660 611 L 679 612 L 693 615 Q 706 619 715 628 L 725 644 L 728 655 L 730 678 L 737 692 Q 744 700 755 706 Q 767 712 783 715 L 783 714 L 782 713 L 775 706 L 769 689 L 769 677 L 775 652 L 776 652 L 775 657 L 776 675 L 778 683 Q 783 696 791 706 Q 804 720 821 731 Q 834 741 842 756 L 849 776 L 849 794 L 842 810 L 838 813 L 834 803 L 842 787 Q 842 769 833 760 Q 824 748 811 740 L 792 731 L 762 723 L 752 719 L 735 708 Q 724 699 719 686 Q 715 674 715 659 L 709 644 Q 701 632 687 628 L 677 626 L 645 626 L 644 625 L 624 624 L 601 617 L 583 606 Q 567 592 559 572 Q 551 560 535 556 L 520 557 L 506 565 L 499 573 L 485 584 L 470 588 L 462 588 L 447 585 L 421 573 L 402 566 L 388 563 L 379 563 L 378 562 L 354 563 L 346 565 L 337 570 Q 330 574 329 583 Q 329 592 333 597 L 346 607 L 364 616 L 369 623 L 371 630 Q 371 638 368 643 Q 367 634 363 630 Q 358 624 350 621 L 348 621 L 354 632 Q 355 640 352 644 L 344 651 Q 333 655 326 661 L 315 675 L 311 690 Q 312 720 328 736 Q 336 745 347 751 L 349 751 L 347 743 L 348 723 L 352 708 Q 360 686 375 671 Q 398 645 432 631 L 464 621 L 475 620 L 476 619 L 486 619 L 487 618 Q 535 616 561 638 L 571 650 L 582 669 L 597 666 L 629 666 Q 630 669 636 667 L 653 672 L 668 681 L 679 694 L 687 708 L 698 731 L 703 750 L 703 769 L 698 789 Q 690 808 677 823 Q 665 836 650 847 L 636 856 L 604 872 L 607 877 Q 616 886 631 891 L 646 895 L 660 896 L 661 897 L 689 896 L 713 891 Q 741 883 761 868 L 750 846 L 750 844 L 775 854 L 778 854 Q 796 839 803 813 L 803 799 Q 801 789 796 784 L 789 777 L 784 777 L 755 785 L 753 785 L 773 769 L 762 765 L 730 765 L 720 767 L 719 760 L 740 755 L 767 755 Q 768 757 773 756 Q 789 759 801 768 Q 810 776 816 788 L 828 823 L 831 839 L 831 851 L 830 852 L 831 858 Q 861 856 878 840 L 888 828 L 900 804 L 902 803 Q 911 794 918 782 L 924 765 L 926 754 L 926 731 L 923 714 Q 914 685 897 666 L 890 657 L 902 665 L 916 679 L 914 661 L 909 644 L 894 613 L 893 610 Q 910 626 920 651 L 926 670 L 933 714 L 935 714 L 938 706 L 940 696 L 940 689 L 941 688 L 941 669 L 940 668 L 940 659 L 936 639 L 936 633 L 935 632 L 932 591 L 924 550 L 918 533 L 919 531 L 934 561 L 943 587 L 948 611 L 951 648 L 955 643 L 965 624 L 977 591 L 986 549 L 988 526 L 989 525 L 990 488 L 991 487 L 991 464 L 990 463 L 990 445 L 989 444 L 990 439 L 998 469 L 1001 486 L 1001 496 L 1002 497 L 1002 533 L 1001 534 L 1000 550 L 994 577 L 979 619 L 957 662 L 954 671 L 951 697 Q 960 699 965 706 L 978 707 L 979 708 L 1003 706 L 1019 701 Q 1040 692 1056 678 Q 1073 663 1084 643 L 1095 616 L 1099 595 L 1099 570 L 1098 569 L 1097 558 Q 1091 535 1080 518 L 1077 506 L 1077 499 L 1080 487 L 1093 463 L 1095 460 Q 1073 468 1059 482 Q 1038 502 1026 531 L 1025 531 L 1029 514 L 1037 490 L 1043 477 L 1052 448 L 1058 417 L 1059 391 L 1060 390 Q 1057 381 1059 368 L 1058 367 L 1056 349 L 1052 334 L 1045 316 Q 1026 275 995 247 L 993 248 L 1001 268 L 1005 290 L 1005 310 L 1001 330 L 992 351 L 980 367 Q 962 323 932 292 Q 914 272 890 258 Q 876 251 860 246 L 840 242 L 810 242 L 809 243 L 796 244 L 762 254 L 751 259 L 749 260 L 750 242 L 756 222 L 769 201 Q 782 185 800 174 L 796 173 Z M 286 583 L 285 584 L 276 584 L 265 586 L 245 592 Q 221 602 204 617 Q 187 631 177 652 L 169 675 L 168 687 L 167 688 L 167 698 L 169 699 L 182 700 L 195 706 L 196 700 L 196 689 L 200 674 Q 205 660 214 650 Q 241 618 294 613 L 288 596 L 287 584 L 286 583 Z M 302 626 L 288 635 Q 273 647 269 670 L 269 687 L 271 697 Q 276 712 285 723 Q 298 738 320 746 L 321 746 Q 301 730 296 700 L 296 681 Q 299 668 305 660 Q 312 650 323 645 L 323 644 L 312 636 L 306 630 L 302 626 Z M 481 630 L 480 631 L 468 632 L 449 638 L 454 661 L 454 664 L 431 645 Q 412 653 398 666 Q 380 679 371 700 L 399 715 L 392 716 L 369 716 L 364 717 L 361 725 L 361 745 L 362 749 Q 365 760 372 768 L 385 779 L 413 768 L 414 768 L 400 788 L 410 792 L 425 795 L 447 795 L 451 794 L 450 793 L 450 775 L 455 757 Q 462 740 473 728 Q 508 688 567 672 L 560 657 Q 538 626 481 630 Z M 603 677 L 602 678 L 594 678 L 577 681 L 554 688 Q 531 696 513 710 Q 519 720 528 727 L 528 728 L 516 725 L 496 723 Q 472 741 464 775 L 464 788 Q 466 797 471 803 L 505 789 L 506 789 L 490 807 L 484 816 L 501 823 L 516 826 L 543 826 L 560 823 L 577 818 L 611 802 Q 625 794 637 783 L 623 761 L 624 759 L 651 768 Q 660 757 666 743 L 670 728 Q 671 707 662 697 L 654 689 L 625 697 L 623 697 L 632 689 L 638 682 L 627 678 L 603 677 Z M 949 707 L 947 709 L 942 726 L 938 733 L 937 751 L 935 761 Q 932 773 926 783 L 935 789 L 944 803 L 947 815 L 947 822 L 944 834 L 934 851 L 921 863 L 888 884 L 875 899 L 871 908 L 870 919 L 869 920 L 872 937 L 879 949 Q 886 958 898 963 L 899 963 L 894 949 Q 893 938 895 931 L 904 913 L 917 901 L 943 885 L 955 875 Q 966 865 973 852 L 978 841 L 981 826 L 981 813 L 979 803 Q 975 791 968 783 L 953 769 Q 948 768 947 770 L 939 769 L 936 768 L 937 761 L 939 759 L 944 761 L 953 758 Q 961 752 964 740 Q 966 724 961 716 Q 957 709 949 707 Z M 152 708 Q 135 711 125 722 L 144 722 L 155 726 L 161 733 L 161 736 L 159 738 L 143 745 L 133 752 Q 123 760 117 771 L 118 773 Q 130 764 148 761 L 149 762 L 148 764 L 139 772 L 119 782 L 104 799 L 101 807 L 99 818 L 100 829 L 103 839 L 113 854 Q 127 870 150 877 L 151 878 Q 145 869 142 857 Q 141 837 150 828 L 158 822 L 163 822 L 166 831 Q 171 837 181 839 Q 192 841 200 838 Q 214 834 224 825 L 236 810 L 240 799 L 241 797 L 227 806 L 217 808 Q 208 808 204 804 Q 201 803 202 798 L 206 795 Q 221 784 225 762 Q 227 734 213 723 L 211 740 L 205 752 L 195 761 L 193 762 Q 198 755 200 746 Q 202 728 195 721 Q 183 705 152 708 Z M 685 714 L 684 729 L 682 739 L 677 753 Q 669 770 657 783 L 662 805 L 667 816 Q 689 796 696 761 L 696 751 L 694 740 L 685 714 Z M 973 728 Q 973 747 964 758 L 966 759 L 990 765 L 1005 771 L 1026 784 Q 1038 794 1046 808 L 1052 823 L 1054 833 Q 1055 854 1048 868 L 1050 869 L 1062 872 L 1076 881 L 1083 861 L 1085 850 L 1085 842 L 1086 841 L 1085 821 L 1080 802 Q 1073 786 1063 774 Q 1049 758 1030 747 L 999 734 L 973 728 Z M 356 769 L 360 786 L 368 801 Q 375 811 387 816 L 421 825 Q 435 830 447 839 L 460 838 L 465 836 L 454 807 L 446 807 L 445 808 L 420 808 L 419 807 L 408 806 Q 385 799 370 785 Q 362 779 357 770 L 356 769 Z M 646 793 Q 624 813 595 826 L 568 836 L 547 840 L 537 840 L 536 841 Q 490 843 468 822 L 466 823 L 477 847 Q 485 857 499 863 L 513 868 Q 519 867 522 870 L 530 870 L 531 871 L 563 870 L 595 862 Q 631 849 657 826 L 648 794 L 646 793 Z M 818 807 L 814 825 L 806 842 Q 796 858 782 870 L 789 904 L 794 901 Q 805 890 814 877 L 820 865 L 824 848 L 823 830 L 818 807 Z M 345 825 L 344 826 L 326 827 L 307 831 L 279 842 L 278 844 L 298 858 L 299 860 L 279 858 L 278 857 L 270 857 L 269 856 L 261 856 L 260 855 L 257 856 Q 247 864 241 875 L 237 885 Q 239 890 236 892 L 236 899 L 238 907 L 247 922 L 257 930 L 287 918 L 289 916 L 290 917 L 272 941 L 296 950 L 327 956 L 360 956 L 361 955 L 376 954 L 393 950 Q 419 943 438 928 L 454 910 L 460 893 L 459 879 L 451 863 L 437 849 L 411 854 L 406 856 L 404 856 L 421 840 L 409 834 L 392 829 L 375 827 L 374 826 L 345 825 Z M 1025 873 Q 1012 875 1005 882 L 995 893 L 980 926 L 975 933 Q 967 943 953 946 Q 934 948 927 939 L 925 940 Q 926 958 936 968 Q 948 982 971 986 Q 994 987 1007 978 L 1017 966 L 1020 968 L 1025 978 L 1025 990 L 1019 1004 Q 1012 1013 1001 1018 L 990 1021 L 980 1022 Q 990 1029 1006 1032 L 1027 1032 L 1032 1031 Q 1045 1027 1055 1020 Q 1067 1011 1073 997 L 1077 985 L 1078 972 L 1079 971 L 1077 948 L 1071 935 Q 1066 927 1058 923 L 1055 920 L 1056 918 L 1064 914 Q 1075 916 1082 922 L 1089 929 L 1089 923 L 1087 915 L 1078 898 Q 1068 884 1050 879 Q 1039 878 1033 880 L 1021 887 Q 1009 897 1007 916 L 1005 913 Q 1004 901 1006 894 L 1013 882 L 1022 875 L 1028 876 L 1028 875 L 1025 873 Z M 586 877 Q 586 887 590 895 L 595 897 L 609 899 L 617 902 L 618 902 L 600 890 L 590 879 Q 589 876 586 877 Z M 771 878 L 758 887 L 724 902 L 696 909 L 680 910 L 679 911 L 656 911 L 641 908 L 638 909 Q 655 916 668 927 L 682 943 L 704 942 L 734 935 Q 759 927 778 913 L 776 896 L 772 879 L 771 878 Z M 474 890 L 470 907 Q 465 918 457 928 Q 439 947 412 958 L 382 967 L 363 969 L 362 970 L 348 970 L 347 971 L 344 970 L 325 970 L 324 969 L 301 966 L 265 953 L 264 984 L 274 989 L 293 996 L 315 1001 L 331 1002 L 332 1003 L 358 1003 L 359 1002 L 368 1002 L 390 998 L 414 990 L 441 975 L 442 974 L 442 967 L 445 955 L 456 936 L 476 918 L 476 900 L 474 890 Z M 223 903 L 223 930 L 226 945 Q 230 956 238 965 L 254 977 L 254 946 L 249 942 Q 237 933 229 920 L 224 907 L 224 904 L 223 903 Z M 550 906 L 518 912 L 502 919 L 512 930 L 519 937 L 488 928 L 483 929 L 475 935 Q 461 946 456 966 L 456 977 L 458 984 L 468 1000 L 481 1010 L 511 998 L 512 998 L 497 1020 L 518 1027 L 546 1032 L 580 1032 L 608 1027 L 629 1020 Q 644 1014 656 1004 Q 671 993 675 971 L 673 957 Q 670 947 663 941 L 648 941 L 647 942 L 623 943 L 621 944 L 646 929 L 646 927 Q 629 915 606 910 L 589 907 L 581 907 L 580 906 L 550 906 Z M 688 973 Q 687 983 683 991 L 674 1005 Q 655 1026 626 1036 L 597 1044 L 584 1045 L 583 1046 L 568 1046 L 567 1047 L 542 1046 L 541 1045 L 528 1044 Q 507 1040 490 1032 L 489 1064 L 501 1069 L 525 1076 L 542 1078 L 543 1079 L 555 1079 L 556 1080 L 584 1079 L 616 1073 L 648 1060 L 670 1044 L 682 1029 L 687 1017 L 689 1007 L 689 976 L 688 973 Z M 444 982 L 443 1005 L 444 1006 L 445 1017 Q 449 1032 458 1042 Q 466 1051 478 1057 L 478 1026 L 468 1018 Q 450 1005 444 982 Z " /><path fill="none" stroke="rgb(255,255,255)" stroke-width="0" opacity="1" d="M 694.5 326 L 700 326.5 Q 664.6 341.6 635.5 363 L 569.5 416 L 560 421.5 L 560.5 423 L 562.5 422 L 574.5 422 L 575.5 421 L 607.5 421 L 632 425.5 L 606.5 427 L 584.5 431 L 558.5 431 L 557.5 430 L 544.5 430 L 543.5 429 Q 533.3 430.2 527 427.5 L 532.5 427 L 577.5 385 L 611.5 359 Q 632.5 345.5 657.5 336 Q 674.5 329.5 694.5 326 Z " /><path fill="none" stroke="rgb(255,255,255)" stroke-width="0" opacity="1" d="M 698.5 452 L 732.5 453 L 733.5 454 L 745.5 455 L 767.5 461 Q 810.1 476.9 838 507.5 Q 860.8 532.2 875 565.5 L 872 563.5 Q 859.8 543.2 842.5 528 Q 813.2 499.3 774.5 480 Q 751.9 468.6 725.5 461 L 688 453.5 L 697.5 453 L 698.5 452 Z " /></svg>