<svg role="img" width="1024" height="1024" viewBox="0 0 1254 1254" version="1.1" xmlns="http://www.w3.org/2000/svg" desc="Created with imagetracer.js version 1.2.6" ><path fill="#000" stroke="rgb(0,0,0)" stroke-width="0" opacity="1" d="M 833.5 336 L 835 336.5 L 835 353.5 L 833 364.5 Q 829.1 380.6 822 393.5 Q 802.4 426.9 773.5 451 L 719 499.5 L 720.5 500 L 783.5 457 Q 814.9 436.9 850.5 421 L 875.5 406 L 910.5 378 L 911 390.5 L 909 399.5 L 901 416.5 Q 891.9 430.9 879.5 442 L 860.5 457 L 793.5 500 L 765 522.5 L 767.5 523 L 783.5 517 L 814.5 509 L 887.5 498 Q 913.6 492.1 935.5 482 L 936 484.5 Q 928.9 506.4 912.5 519 Q 899 530.5 880.5 537 L 854.5 545 L 800.5 557 L 770.5 567 Q 745.1 578.6 728 598.5 L 729.5 599 Q 742.7 590.7 760.5 587 L 772.5 586 L 773.5 585 L 799.5 585 L 800.5 586 L 833.5 586 L 834.5 585 L 843.5 585 L 844.5 584 L 851.5 584 L 867.5 581 L 868 582.5 Q 862.6 595.1 852.5 603 Q 841.3 612.8 824.5 617 L 814.5 619 L 806.5 619 L 805.5 620 L 772.5 621 L 736.5 628 L 713.5 638 L 693 653.5 Q 682.2 664.2 676 679.5 L 674 693.5 Q 675.4 701.6 681.5 705 L 689.5 708 L 710.5 708 L 754.5 698 L 769.5 697 L 770.5 696 L 792.5 696 L 793.5 697 L 801.5 697 L 811.5 699 L 826.5 704 Q 844.3 711.7 856 725.5 L 862 737.5 L 860.5 737 L 841.5 732 L 822.5 731 L 821.5 732 L 811.5 732 L 810.5 733 L 799.5 734 L 769.5 743 L 708.5 771 L 677.5 782 L 647.5 788 L 637.5 788 L 636.5 789 L 600.5 789 L 599.5 788 L 571.5 788 L 570.5 789 L 558.5 789 L 557.5 790 L 543.5 791 L 515.5 797 Q 488.1 805.1 464.5 817 L 413.5 846 L 376.5 871 L 319.5 913 L 319 909.5 Q 328.1 876.1 345 850.5 Q 362.9 822.9 386.5 801 Q 404.8 783.8 427 770.5 L 286.5 770 L 285.5 769 L 257.5 769 L 256.5 768 L 235.5 768 L 234.5 767 L 217.5 767 L 216.5 766 L 189.5 765 L 188.5 764 L 166.5 763 L 165.5 762 L 156.5 762 L 155.5 761 L 139 759.5 L 140.5 758 L 148.5 758 L 165.5 755 L 173.5 755 L 174.5 754 L 182.5 754 L 199.5 751 L 231.5 748 L 232.5 747 L 273.5 742 L 280.5 740 L 286.5 740 L 293.5 738 L 299.5 738 L 300.5 737 L 353.5 729 L 409.5 716 L 434.5 707 L 443 702.5 L 441.5 702 L 431.5 704 L 382.5 706 L 381.5 707 L 309.5 707 L 308.5 706 L 286.5 706 L 285.5 705 L 259.5 704 L 258.5 703 L 250.5 703 L 249.5 702 L 240.5 702 L 233 700.5 L 233.5 699 L 256.5 696 L 272.5 692 L 277.5 692 L 312.5 685 L 407.5 662 L 457.5 645 L 491.5 628 Q 509.6 617.6 524.5 604 Q 563 566.5 604.5 532 L 746.5 424 Q 780.1 397.1 810 366.5 Q 823.4 352.9 833.5 336 Z M 718 500 L 716 503 L 719 501 L 718 500 Z " /><path fill="#000" stroke="rgb(0,0,0)" stroke-width="0" opacity="1" d="M 1028.5 490 L 1030 492.5 L 1030 497.5 L 1035 519.5 L 1039 530.5 Q 1046 547 1058.5 558 Q 1067 565.5 1078.5 570 L 1098.5 576 L 1115 578.5 L 1093.5 582 L 1076.5 587 Q 1062 593 1052 603.5 Q 1042.4 613.9 1037 628.5 L 1031 648.5 L 1030 659.5 L 1028.5 661 Q 1026.3 641.2 1020 625.5 Q 1012.9 607.1 998.5 596 Q 987.8 588.2 973.5 584 L 943 578.5 L 963.5 575 L 979.5 570 Q 995.7 563.7 1006 551.5 Q 1014.8 541.3 1020 527.5 L 1026 506.5 L 1028.5 490 Z " /><path fill="none" stroke="rgb(255,255,255)" stroke-width="0" opacity="1" d="M 0.5 0 L 1254 0.5 L 1253.5 1254 L 0 1253.5 L 0.5 0 Z M 834 336 Q 823 353 810 367 Q 780 397 747 424 L 605 532 Q 563 567 525 604 Q 510 618 492 628 L 458 645 L 408 662 L 313 685 L 278 692 L 273 692 L 257 696 L 234 699 L 233 701 L 241 702 L 250 702 L 251 703 L 259 703 L 260 704 L 286 705 L 287 706 L 309 706 L 310 707 L 382 707 L 383 706 L 432 704 L 442 702 L 443 703 L 435 707 L 410 716 L 354 729 L 301 737 L 300 738 L 294 738 L 287 740 L 281 740 L 274 742 L 233 747 L 232 748 L 200 751 L 183 754 L 175 754 L 174 755 L 166 755 L 149 758 L 141 758 L 139 760 L 156 761 L 157 762 L 166 762 L 167 763 L 189 764 L 190 765 L 217 766 L 218 767 L 235 767 L 236 768 L 257 768 L 258 769 L 286 769 L 287 770 L 427 771 Q 405 784 387 801 Q 363 823 345 851 Q 328 876 319 910 L 320 913 L 377 871 L 414 846 L 465 817 Q 488 805 516 797 L 544 791 L 558 790 L 559 789 L 571 789 L 572 788 L 600 788 L 601 789 L 637 789 L 638 788 L 648 788 L 678 782 L 709 771 L 770 743 L 800 734 L 811 733 L 812 732 L 822 732 L 823 731 L 842 732 L 861 737 L 862 738 L 856 726 Q 844 712 827 704 L 812 699 L 802 697 L 794 697 L 793 696 L 771 696 L 770 697 L 755 698 L 711 708 L 690 708 L 682 705 Q 675 702 674 694 L 676 680 Q 682 664 693 654 L 714 638 L 737 628 L 773 621 L 806 620 L 807 619 L 815 619 L 825 617 Q 841 613 853 603 Q 863 595 868 583 L 868 581 L 852 584 L 845 584 L 844 585 L 835 585 L 834 586 L 801 586 L 800 585 L 774 585 L 773 586 L 761 587 Q 743 591 730 599 L 728 599 Q 745 579 771 567 L 801 557 L 855 545 L 881 537 Q 899 530 913 519 Q 929 506 936 485 L 936 482 Q 914 492 888 498 L 815 509 L 784 517 L 768 523 L 765 523 L 794 500 L 861 457 L 880 442 Q 892 431 901 417 L 909 400 L 911 391 L 911 378 L 876 406 L 851 421 Q 815 437 784 457 L 716 503 L 713 505 L 774 451 Q 802 427 822 394 Q 829 381 833 365 L 835 354 L 835 337 L 834 336 Z M 1029 490 L 1026 507 L 1020 528 Q 1015 541 1006 552 Q 996 564 980 570 L 964 575 L 943 579 L 974 584 Q 988 588 999 596 Q 1013 607 1020 626 Q 1026 641 1029 661 L 1030 660 L 1031 649 L 1037 629 Q 1042 614 1052 604 Q 1062 593 1077 587 L 1094 582 L 1115 579 L 1099 576 L 1079 570 Q 1067 566 1059 558 Q 1046 547 1039 531 L 1035 520 L 1030 498 L 1030 493 L 1029 490 Z " /></svg>